<?xml version="1.0" encoding="utf-8"?>
<!-- Generator: Adobe Illustrator 27.8.1, SVG Export Plug-In . SVG Version: 6.00 Build 0)  -->
<svg version="1.1" id="Layer_2_00000081630875100629297900000004240523406869969290_"
	 xmlns="http://www.w3.org/2000/svg" xmlns:xlink="http://www.w3.org/1999/xlink" x="0px" y="0px" viewBox="0 0 215 209.6"
	 style="enable-background:new 0 0 215 209.6;" xml:space="preserve">
<style type="text/css">
	.st0{fill-rule:evenodd;clip-rule:evenodd;fill:#0A6AD9;}
	.st1{opacity:0.1;enable-background:new    ;}
	.st2{fill:#FFFFFF;}
</style>
<g id="Lager_1">
	<path class="st0" d="M5.8,40.9C0,54.1,0,71,0,104.8s0,50.7,5.8,63.9c6.9,15.6,19.4,28.1,35,35.1c13.2,5.8,30.1,5.8,63.9,5.8
		s50.7,0,63.9-5.8c15.6-6.9,28.1-19.4,35.1-35.1c5.8-13.2,5.8-30.1,5.8-63.9s0-50.7-5.8-63.9c-6.9-15.6-19.4-28.1-35.1-35
		C155.5,0,138.6,0,104.8,0S54.1,0,40.9,5.8C25.2,12.7,12.7,25.2,5.8,40.9z"/>
	<path class="st1" d="M198.6,178.3c-28-57.8-87.2-97.7-155.7-97.7c-14.8,0-29.1,1.9-42.9,5.4C0,91.6,0,97.8,0,104.8
		c0,33.8,0,50.7,5.8,63.9c6.9,15.6,19.4,28.1,35,35.1c13.2,5.8,30.1,5.8,63.9,5.8s50.7,0,63.9-5.8c0.1,0,0.1-0.1,0.2-0.1
		C181.1,198.3,191.4,189.4,198.6,178.3L198.6,178.3z"/>
	<path class="st2" d="M128.2,154.4l-5.3-7.4c7.5-13.3,10.6-27.1,14.4-41c4.8-22.9,9-64.4-20.7-64.4c-27.7,0-44.1,36.2-48.9,60.1
		c-7.5,34,12.8,58.5,45.2,58.5c10.6,0,29.3-1.6,39.9-5.3l-4.8,9.6c-14.4,4.8-35.1,6.9-49.5,6.9c-41.5,0-65.4-25-56.4-69.1
		c8-37.8,36.7-69.7,75-69.7s52.7,27.7,45.2,65.4C159.1,118.2,146.3,141.1,128.2,154.4L128.2,154.4z"/>
</g>
</svg>
