<svg xmlns="http://www.w3.org/2000/svg" xmlns:xlink="http://www.w3.org/1999/xlink" width="40" height="40">
  <defs>
    <path id="path-1" d="M9.895.001 29.745 0c3.566 0 4.859.371 6.162 1.069a7.27 7.27 0 0 1 3.024 3.024l.14.27c.607 1.222.929 2.572.929 5.893v19.488c0 3.567-.371 4.86-1.069 6.163a7.27 7.27 0 0 1-3.024 3.024l-.27.14c-1.222.607-2.572.929-5.893.929H10.256c-3.567 0-4.86-.371-6.163-1.069a7.27 7.27 0 0 1-3.024-3.024l-.14-.27C.344 34.46.024 33.164 0 30.105L0 10.255C0 6.69.371 5.397 1.069 4.094a7.27 7.27 0 0 1 3.024-3.024l.27-.14C5.54.344 6.836.024 9.895 0Z"/>
  </defs>
  <g id="logo-/-short" fill="none" fill-rule="evenodd" stroke="none" stroke-width="1">
    <g id="Group">
      <mask id="mask-2" fill="#fff">
        <use xlink:href="#path-1"/>
      </mask>
      <use xlink:href="#path-1" id="rectangle" fill="#2965CC"/>
      <path id="Path" fill="#FFF" fill-rule="nonzero" d="M23.77 28.542c1.395-2.57 2.093-5.07 2.652-7.709.907-4.305 1.675-12.014-3.91-12.083-5.374 0-8.306 6.736-9.214 11.042-1.326 6.25 2.374 10.972 8.517 10.972 2.094 0 5.375-.278 7.539-.972l-.838 1.875c-2.723.902-6.701 1.25-9.354 1.25-7.818 0-12.146-4.584-10.47-12.778 1.465-6.875 6.91-12.986 14.17-13.056 7.19 0 9.842 5.209 8.446 12.153-.838 3.958-3.211 8.125-6.562 10.695l-.977-1.39Z" mask="url(#mask-2)"/>
    </g>
  </g>
</svg>
